<svg width="24" height="25" viewBox="0 0 24 25" fill="none" xmlns="http://www.w3.org/2000/svg">
<mask id="mask0_2094:8842" style="mask-type:alpha" maskUnits="userSpaceOnUse" x="0" y="0" width="24" height="24">
<path fill-rule="evenodd" clip-rule="evenodd" d="M0 0.0184326H23.9705V23.8635H0V0.0184326Z" fill="white"/>
</mask>
<g mask="url(#mask0_2094:8842)">
<path fill-rule="evenodd" clip-rule="evenodd" d="M17.5528 7.50197H21.43C20.7726 5.49775 17.2003 2.3006 15.4672 2.16662C16.5834 3.78487 17.17 5.6033 17.5528 7.50197V7.50197ZM8.5319 21.9021C8.37104 21.6478 8.22616 21.4348 8.09725 21.2132C7.30468 19.8477 6.80226 18.3739 6.49146 16.8328C6.44161 16.5859 6.35788 16.5014 6.09304 16.5068C5.09444 16.5263 4.09545 16.515 3.09646 16.515H2.5216C3.461 18.7361 5.86559 21.0422 8.5319 21.9021V21.9021ZM6.42532 7.50705C6.83426 5.58969 7.39393 3.75567 8.56078 2.08952C5.78853 3.10954 3.82677 4.9198 2.50647 7.50705H6.42532ZM6.17826 9.0357C6.12334 9.02596 6.09919 9.01778 6.07505 9.01778C4.75085 9.017 3.42626 9.01934 2.10207 9.01272C1.94901 9.01194 1.91123 9.07581 1.87578 9.20706C1.36792 11.0734 1.3687 12.9378 1.868 14.8065C1.91512 14.9829 1.99029 15.0199 2.15776 15.0187C3.42354 15.0121 4.6897 15.0152 5.95587 15.0144C6.02675 15.0144 6.09725 15.0055 6.1802 14.9993C5.93016 13.0013 5.9325 11.0247 6.17826 9.0357V9.0357ZM7.90844 7.507H16.0192C16.0075 7.433 16.002 7.36835 15.9872 7.30564C15.7531 6.29925 15.4346 5.3209 15.0011 4.38189C14.6408 3.59984 14.2288 2.8505 13.597 2.24877C12.9973 1.67664 12.3052 1.36 11.4624 1.5929C10.8073 1.77439 10.3411 2.22579 9.93641 2.7469C9.34364 3.51065 8.93509 4.37605 8.61105 5.27728C8.35088 6.00131 8.14602 6.74558 7.90844 7.507V7.507ZM23.9689 12.0155C23.7275 12.0155 23.5027 12.0264 23.28 12.0092C23.2067 12.0038 23.1203 11.9395 23.0716 11.8772C22.8671 11.6155 22.6693 11.3475 22.4812 11.0737C22.429 10.9978 22.4064 10.895 22.39 10.8011C22.2876 10.213 22.1906 9.62413 22.0913 9.03097H7.69689C7.42504 11.0204 7.4266 13.0024 7.69689 15.0082H11.953C12.0294 15.5137 12.1022 15.9955 12.1793 16.5033H7.91383C8.13466 17.2437 8.31537 17.9498 8.55606 18.6349C8.91905 19.6678 9.39654 20.6469 10.126 21.4808C10.2623 21.6365 10.4119 21.7861 10.5766 21.9103C10.72 22.0178 10.7328 22.1195 10.7009 22.2893C10.6023 22.8104 10.5334 23.3374 10.4528 23.8635C5.05356 23.3857 -0.145469 18.3712 0.00291905 11.7273C0.154812 4.93686 5.91857 -0.371223 12.6786 0.0408361C19.4639 0.453674 24.0667 6.21705 23.9689 12.0155V12.0155Z" fill="#0078D7"/>
</g>
<mask id="mask1_2094:8842" style="mask-type:alpha" maskUnits="userSpaceOnUse" x="11" y="10" width="13" height="15">
<path fill-rule="evenodd" clip-rule="evenodd" d="M11.9948 10.5255H24.0001V24.0027H11.9948V10.5255Z" fill="white"/>
</mask>
<g mask="url(#mask1_2094:8842)">
<path fill-rule="evenodd" clip-rule="evenodd" d="M18.0111 18.0134C19.6648 18.0017 21.003 16.6413 20.9882 14.9872C20.9734 13.3444 19.6231 12.0105 17.9807 12.0167C16.3262 12.0222 14.9822 13.3775 14.9911 15.0305C15.0001 16.6845 16.3574 18.0255 18.0111 18.0134M13.4826 24.0027H11.9948C11.9964 22.8623 12.3037 21.8185 12.8925 20.8565C13.481 19.8957 14.2977 19.1764 15.3193 18.6412C14.0025 17.599 13.3805 16.2522 13.5157 14.5974C13.6158 13.3713 14.1758 12.3595 15.1117 11.5614C16.8772 10.0561 19.6031 10.2182 21.2163 11.8722C22.9011 13.5999 23.0713 16.8364 20.6671 18.6381C22.7629 19.8054 23.8912 21.57 24.0002 23.996H22.4973C22.4482 22.5706 21.8951 21.3831 20.7758 20.4893C19.873 19.7687 18.8312 19.4529 17.678 19.5261C15.5144 19.6628 13.5465 21.4431 13.4826 24.0027" fill="#233A60"/>
</g>
</svg>
