<svg width="40" height="40" viewBox="0 0 40 40" fill="none" xmlns="http://www.w3.org/2000/svg">
<path fill-rule="evenodd" clip-rule="evenodd" d="M25.0125 20.0048V25.0081H20.0676V39.9649H40V24.981H35.0207V20.0048H25.0125ZM27.5557 24.9607H32.4926V22.5152H27.5557V24.9607ZM22.5477 29.9671H37.5078V27.5306H22.5477V29.9671ZM22.5528 32.5037H25.0097V34.9544H27.5354V32.5134H32.5007V34.9538H35.0124V32.5162H37.5038V37.4666H22.5528V32.5037Z" fill="#0078D7"/>
<mask id="mask0_2803_9113" style="mask-type:alpha" maskUnits="userSpaceOnUse" x="0" y="0" width="26" height="33">
<path fill-rule="evenodd" clip-rule="evenodd" d="M0 0H25.0283V32.4559H0V0Z" fill="white"/>
</mask>
<g mask="url(#mask0_2803_9113)">
<path fill-rule="evenodd" clip-rule="evenodd" d="M15.0448 17.4994C19.1813 17.4881 22.539 14.1128 22.525 9.98049C22.5108 5.85518 19.1714 2.51268 15.048 2.49685C10.9291 2.48101 7.55064 5.86014 7.54936 9.99713C7.54801 14.1344 10.9213 17.5108 15.0448 17.4994M20.3778 18.4569C21.021 18.7713 21.6243 19.0751 22.2362 19.3605C22.4601 19.465 22.5379 19.6048 22.5334 19.8531C22.518 20.7155 22.5275 21.5784 22.5275 22.5073C18.3567 19.6408 13.9698 19.0882 9.46869 21.3392C4.96353 23.5921 2.77465 27.4424 2.5038 32.4559H0C0.373131 25.8132 3.57409 21.1685 9.65398 18.4449C6.37801 16.1561 4.77281 13.0245 5.10188 9.02316C5.32371 6.32528 6.58489 4.10617 8.63391 2.34775C12.791 -1.21954 19.0907 -0.659364 22.6957 3.60445C26.4393 8.03212 25.6838 15.066 20.3778 18.4569" fill="#233A60"/>
</g>
</svg>
