<?xml version="1.0" encoding="UTF-8"?>
<svg width="27px" height="30px" viewBox="0 0 27 30" version="1.1" xmlns="http://www.w3.org/2000/svg" xmlns:xlink="http://www.w3.org/1999/xlink">
    <!-- Generator: Sketch 64 (93537) - https://sketch.com -->
    <title>Icon-university</title>
    <desc>Created with Sketch.</desc>
    <defs>
        <polygon id="path-1" points="0 0.206190476 18.3077521 0.206190476 18.3077521 24.0194762 0 24.0194762"></polygon>
        <polygon id="path-3" points="0.232567477 0.117652583 9.41190476 0.117652583 9.41190476 14.7618095 0.232567477 14.7618095"></polygon>
    </defs>
    <g id="Interface1920" stroke="none" stroke-width="1" fill="none" fill-rule="evenodd">
        <g id="Profile1920" transform="translate(-611.000000, -431.000000)">
            <g id="Profile" transform="translate(100.000000, 192.000000)">
                <g id="ProfileInfo" transform="translate(504.000000, 88.000000)">
                    <g id="ProfileBody" transform="translate(5.000000, 106.000000)">
                        <g id="Icon-university" transform="translate(2.000000, 45.000000)">
                            <g id="Group-3" transform="translate(0.000000, 0.270048)">
                                <mask id="mask-2" fill="white">
                                    <use xlink:href="#path-1"></use>
                                </mask>
                                <g id="Clip-2"></g>
                                <path d="M10.9703333,2.03708692 C7.94080952,2.04233333 5.47319048,4.51709524 5.4779455,7.54471429 C5.48319048,10.5761429 7.95604762,13.0418571 10.984619,13.0371021 C14.0150952,13.0318571 16.4831905,10.5575714 16.4779607,7.52995238 C16.4727143,4.50138095 13.9965238,2.03185714 10.9703333,2.03708692 M14.9179524,13.7375714 C15.5960476,14.0837619 16.2617619,14.4232857 16.9222381,14.7599524 C16.549381,15.3099524 16.2150952,15.8028095 15.8784286,16.2994762 C12.8327143,14.5142381 9.7017619,14.3118571 6.58557143,16.0180476 C3.46938095,17.7247143 1.96366667,20.4818571 1.78414286,24.0194762 L0.00985714286,24.0194762 C-0.154904762,21.0342381 1.68604762,15.856619 7.05557143,13.7470952 C4.71842857,12.0923333 3.47271429,9.89042857 3.6722381,6.99519048 C3.81366667,4.94471429 4.70461905,3.24852381 6.2622381,1.9142381 C9.31080952,-0.697190476 14.0631905,-0.260047619 16.6331905,2.8542381 C19.2512857,6.02614286 18.8874762,11.101381 14.9179524,13.7375714" id="Fill-1" fill="#233A60" mask="url(#mask-2)"></path>
                            </g>
                            <g id="Group-6" transform="translate(17.142857, 15.031952)">
                                <mask id="mask-4" fill="white">
                                    <use xlink:href="#path-3"></use>
                                </mask>
                                <g id="Clip-5"></g>
                                <path d="M3.02504762,8.90514286 L3.02504762,11.8018095 C3.446,11.5937143 3.85838095,11.4346667 4.21933333,11.1989524 C4.64504762,10.920381 5.01028571,10.9137143 5.43980952,11.1913333 C5.80980952,11.430381 6.22933333,11.5937143 6.64885714,11.8013333 L6.64885714,8.9032381 C5.42933333,9.40180952 4.23171429,9.39657143 3.02504762,8.90514286 M4.83504762,1.94418993 C3.33171429,1.94466667 2.09266667,3.17847619 2.08741204,4.67990476 C2.08219048,6.198 3.32219048,7.44371429 4.83885714,7.44323823 C6.34219048,7.44228571 7.5812381,6.20847619 7.58649273,4.70752381 C7.59171429,3.18847619 6.35171429,1.9432381 4.83504762,1.94418993 M1.16980952,14.7618095 L1.16980952,14.4008571 C1.16980952,12.1699048 1.17266667,9.93942857 1.16314286,7.708 C1.16266667,7.54847619 1.10361905,7.37038095 1.01933333,7.23228571 C0.0555238095,5.65704762 -0.0573333333,4.03419048 0.873142857,2.43038095 C1.81838095,0.800380952 3.29552381,0.0122857143 5.1807619,0.128952381 C8.62266667,0.342761905 10.5598095,4.29704762 8.67647619,7.20371429 C8.57409524,7.36133333 8.51219048,7.57514286 8.5112381,7.76371429 C8.50028571,9.97371429 8.50409524,12.1846667 8.50409524,14.3946667 L8.50409524,14.7618095 C8.3812381,14.7070476 8.28980952,14.6699048 8.20171429,14.6265714 C7.16409524,14.1084762 6.12504762,13.5937143 5.09171429,13.0665714 C4.91171429,12.9746667 4.7707619,12.9699048 4.58695238,13.0637143 C3.55457143,13.5918095 2.51504762,14.105619 1.47742857,14.6237143 C1.38885714,14.668 1.29695238,14.7051429 1.16980952,14.7618095" id="Fill-4" fill="#0978D5" mask="url(#mask-4)"></path>
                            </g>
                        </g>
                    </g>
                </g>
            </g>
        </g>
    </g>
</svg>