<svg width="24" height="21" viewBox="0 0 24 21" fill="none" xmlns="http://www.w3.org/2000/svg">
<mask id="mask0_2094:8872" style="mask-type:alpha" maskUnits="userSpaceOnUse" x="2" y="0" width="19" height="21">
<path fill-rule="evenodd" clip-rule="evenodd" d="M2 0.981628H21V20.9816H2V0.981628Z" fill="white"/>
</mask>
<g mask="url(#mask0_2094:8872)">
<path fill-rule="evenodd" clip-rule="evenodd" d="M7.16745 6.74993C7.15465 9.1029 9.13581 11.0289 11.5508 11.0098C13.9053 10.9906 15.8794 9.07651 15.8931 6.79931C15.9072 4.49061 13.8625 2.50923 11.4925 2.53392C9.11374 2.55861 7.18025 4.44336 7.16745 6.74993M3.573 20.938H2.00052C1.96344 16.5968 3.92695 13.5301 8.07109 11.5942C6.19453 10.0202 5.1746 8.14013 5.58902 5.77823C5.84897 4.29613 6.63763 3.0741 7.89323 2.14875C10.3082 0.369554 13.8385 0.653885 15.9039 2.80126C18.3626 5.35769 18.0802 8.35168 15.0257 11.5908C19.0092 13.4901 21.1249 16.4968 20.9943 20.9244C20.6478 20.9491 20.4003 20.9776 20.1527 20.9814C19.9404 20.9844 19.7285 20.9606 19.5335 20.9491C18.5255 15.2642 15.8161 12.5187 11.3789 12.6307C6.92053 12.7435 4.34445 15.4616 3.573 20.938" fill="#233A60"/>
</g>
</svg>
