<?xml version="1.0" encoding="UTF-8"?>
<svg width="23px" height="28px" viewBox="0 0 23 28" version="1.1" xmlns="http://www.w3.org/2000/svg" xmlns:xlink="http://www.w3.org/1999/xlink">
    <!-- Generator: Sketch 64 (93537) - https://sketch.com -->
    <title>Icon-joinyear</title>
    <desc>Created with Sketch.</desc>
    <defs>
        <polygon id="path-1" points="7.90063111e-05 0.0953302326 22.0710602 0.0953302326 22.0710602 22.1066642 7.90063111e-05 22.1066642"></polygon>
        <polygon id="path-3" points="0.746666667 28 23.1466667 28 23.1466667 0 0.746666667 0"></polygon>
    </defs>
    <g id="Interface1920" stroke="none" stroke-width="1" fill="none" fill-rule="evenodd">
        <g id="Profile1920" transform="translate(-611.000000, -477.000000)">
            <g id="Profile" transform="translate(100.000000, 192.000000)">
                <g id="ProfileInfo" transform="translate(504.000000, 88.000000)">
                    <g id="ProfileBody" transform="translate(5.000000, 106.000000)">
                        <g id="Icon-joinyear" transform="translate(2.000000, 91.000000)">
                            <g id="Group-3" transform="translate(0.746667, 0.000000)">
                                <mask id="mask-2" fill="white">
                                    <use xlink:href="#path-1"></use>
                                </mask>
                                <g id="Clip-2"></g>
                                <path d="M20.0608149,9.04746419 C20.0509172,10.3560409 19.2705637,11.4656223 18.0818009,11.8839293 L18.0818009,4.09862698 L20.0441451,4.09862698 C20.0514381,4.15332465 20.0623777,4.19552 20.0623777,4.23771535 C20.0634195,5.84061767 20.0733172,7.44404093 20.0608149,9.04746419 L20.0608149,9.04746419 Z M16.050173,13.0518549 C16.0434009,15.4830363 14.4358102,17.4766363 12.0775591,18.0131944 C9.30516837,18.6445619 6.44630326,16.6598177 6.08634047,13.8504409 C6.05248,13.5863293 6.02591256,13.3185712 6.02591256,13.0523758 C6.02174512,9.4871293 6.02330791,5.92188279 6.02330791,2.35611535 C6.02278698,2.2795386 6.02330791,2.20244093 6.02330791,2.08992 L16.0324614,2.08992 C16.0397544,2.18525023 16.0517358,2.27068279 16.0517358,2.35559442 C16.0527777,5.92136186 16.0595498,9.4871293 16.050173,13.0518549 L16.050173,13.0518549 Z M3.99324279,11.9005991 C3.05192186,11.54272 2.45181023,10.8769712 2.15071256,9.93565023 C2.07361488,9.69498047 2.02360558,9.43399442 2.02204279,9.18238512 C2.01058233,7.50082233 2.01579163,5.81978047 2.01579163,4.09914791 L3.99324279,4.09914791 L3.99324279,11.9005991 Z M18.0536707,2.06908279 L18.0536707,0.0952781395 L4.00939163,0.0952781395 L4.00939163,2.06908279 L0.0185451163,2.06908279 C0.0122939535,2.17066419 0.0060427907,2.22432 0.0060427907,2.27849674 C0.0060427907,4.57371535 -0.0106269767,6.86893395 0.0117730233,9.16415256 C0.0341730233,11.4119665 1.58862884,13.364413 3.76559628,13.9176409 C4.00730791,13.9791107 4.0984707,14.0879851 4.14274977,14.3291758 C4.57512186,16.6973247 5.89568,18.4091014 8.0512893,19.4525247 C8.66442419,19.748934 9.34580093,19.9036502 10.0183219,20.1307758 L10.0183219,22.1066642 L12.0567219,22.1066642 L12.0567219,20.0599293 C12.2661358,20.017213 12.473466,19.9807479 12.6776707,19.9317805 C12.8829172,19.8817712 13.0902474,19.8338456 13.28768,19.7603944 C15.8532614,18.8039665 17.4259498,16.9984223 17.9416707,14.2958363 C17.9776149,14.1088223 18.028666,13.992134 18.245894,13.9343107 C20.5911219,13.3086735 22.0658753,11.38592 22.0695219,8.96307349 C22.0726474,6.77933395 22.0700428,4.59559442 22.0700428,2.41185488 L22.0700428,2.06908279 L18.0536707,2.06908279 Z" id="Fill-1" fill="#0978D5" mask="url(#mask-2)"></path>
                            </g>
                            <mask id="mask-4" fill="white">
                                <use xlink:href="#path-3"></use>
                            </mask>
                            <g id="Clip-5"></g>
                            <path d="M7.49031305,25.8246706 L17.320458,25.8246706 L17.320458,23.6934129 L7.49031305,23.6934129 L7.49031305,25.8246706 Z M11.4078086,21.503393 L5.48849333,21.503393 L5.48849333,25.8591369 L3.54666667,25.8591369 L3.54666667,28 L21.28,28 L21.28,25.8455764 L19.3094587,25.8455764 L19.3094587,21.4898325 L13.4142432,21.4898325 L13.4142432,21.4666667 L11.4078086,21.4666667 L11.4078086,21.503393 Z" id="Fill-4" fill="#233A60" mask="url(#mask-4)"></path>
                        </g>
                    </g>
                </g>
            </g>
        </g>
    </g>
</svg>