<?xml version="1.0" encoding="UTF-8"?>
<svg width="105px" height="100px" viewBox="0 0 105 100" version="1.1" xmlns="http://www.w3.org/2000/svg" xmlns:xlink="http://www.w3.org/1999/xlink">
    <!-- Generator: Sketch 64 (93537) - https://sketch.com -->
    <title>Youtube</title>
    <desc>Created with Sketch.</desc>
    <g id="Page-1" stroke="none" stroke-width="1" fill="none" fill-rule="evenodd">
        <g id="Artboard" transform="translate(-113.000000, -58.000000)">
            <g id="Youtube" transform="translate(113.000000, 58.000000)">
                <rect id="Rectangle" stroke-opacity="0.461538462" stroke="#C8C8C8" fill="#FFFFFF" x="0.5" y="0.5" width="103.901961" height="99" rx="20"></rect>
                <g id="iconfinder_395_Youtube_logo_4375133" transform="translate(17.647059, 25.490196)" fill-rule="nonzero">
                    <path d="M68.1533355,7.66976652 C67.3526905,4.65087391 64.9940336,2.27307351 61.9990675,1.46602481 C56.5708427,0 34.8039216,0 34.8039216,0 C34.8039216,0 13.0370004,0 7.60847298,1.46617637 C4.61365817,2.27322507 2.25500128,4.65087391 1.4545076,7.66991808 C0,13.1419356 0,24.5592878 0,24.5592878 C0,24.5592878 0,35.9767914 1.4545076,41.4486574 C2.25500128,44.4677016 4.61365817,46.7463828 7.60847298,47.553583 C13.0370004,49.0196078 34.8039216,49.0196078 34.8039216,49.0196078 C34.8039216,49.0196078 56.5708427,49.0196078 61.9990675,47.5534315 C64.9940336,46.7462312 67.3526905,44.46755 68.1533355,41.4485059 C69.6078431,35.9766399 69.6078431,24.5591362 69.6078431,24.5591362 C69.6078431,24.5591362 69.6078431,13.1419356 68.1533355,7.66976652 Z" id="Path" fill="#FF0000"></path>
                    <polygon id="Path" fill="#FFFFFF" points="27.4509804 34.3137255 27.4509804 13.7254902 46.0784314 24.0198336"></polygon>
                </g>
            </g>
        </g>
    </g>
</svg>