<?xml version="1.0" encoding="UTF-8"?>
<svg width="100px" height="100px" viewBox="0 0 100 100" version="1.1" xmlns="http://www.w3.org/2000/svg" xmlns:xlink="http://www.w3.org/1999/xlink">
    <!-- Generator: Sketch 64 (93537) - https://sketch.com -->
    <title>linkedin-in-icon-seeklogo.com</title>
    <desc>Created with Sketch.</desc>
    <g id="Interface1920" stroke="none" stroke-width="1" fill="none" fill-rule="evenodd">
        <g id="Logo" transform="translate(-48.000000, -103.000000)">
            <g id="linkedin-in-icon-seeklogo.com" transform="translate(48.000000, 103.000000)">
                <g id="Group-5" fill="#0071A1">
                    <path d="M92.5997543,0 L7.37567568,0 C3.30663391,0 0,3.22800983 0,7.21031941 L0,92.7842752 C0,96.7663391 3.30663391,100 7.37567568,100 L92.5997543,100 C96.6769042,100 99.9972973,96.7663391 99.9972973,92.7842752 L99.9972973,7.21031941 C99.9972973,3.22800983 96.6769042,0 92.5997543,0" id="Fill-4"></path>
                </g>
                <path d="M22.2439803,13.7668305 C26.9884521,13.7668305 30.8402948,17.6201474 30.8402948,22.3673219 C30.8402948,27.1159705 26.9884521,30.9692875 22.2439803,30.9692875 C17.4805897,30.9692875 13.639312,27.1159705 13.639312,22.3673219 C13.639312,17.6201474 17.4805897,13.7668305 22.2439803,13.7668305 L22.2439803,13.7668305 Z M14.8167076,85.2105651 L29.663145,85.2105651 L29.663145,37.4891892 L14.8167076,37.4891892 L14.8167076,85.2105651 Z" id="Fill-6" fill="#FFFFFE"></path>
                <path d="M38.9675676,37.4891892 L53.1847666,37.4891892 L53.1847666,44.0130221 L53.3879607,44.0130221 C55.365602,40.2614251 60.204914,36.304914 67.4208845,36.304914 C82.4380835,36.304914 85.2132678,46.1859951 85.2132678,59.0385749 L85.2132678,85.2105651 L70.3830467,85.2105651 L70.3830467,62.0036855 C70.3830467,56.4697789 70.2879607,49.3503686 62.6764128,49.3503686 C54.9589681,49.3503686 53.7813268,55.3820639 53.7813268,61.6076167 L53.7813268,85.2105651 L38.9675676,85.2105651 L38.9675676,37.4891892" id="Fill-7" fill="#FFFFFE"></path>
            </g>
        </g>
    </g>
</svg>