<svg width="25" height="24" viewBox="0 0 25 24" fill="none" xmlns="http://www.w3.org/2000/svg">
<mask id="mask0" mask-type="alpha" maskUnits="userSpaceOnUse" x="0" y="0" width="25" height="24">
<path fill-rule="evenodd" clip-rule="evenodd" d="M0 0H24.7273V24H0V0Z" fill="white"/>
</mask>
<g mask="url(#mask0)">
<path fill-rule="evenodd" clip-rule="evenodd" d="M12.3636 0C5.53628 0 0 5.50828 0 12.3038C0 17.7398 3.54256 22.3518 8.45501 23.9787C9.0729 24.0926 9.29975 23.7118 9.29975 23.3868C9.29975 23.0936 9.28829 22.1242 9.28296 21.0961C5.84339 21.8404 5.1176 19.6444 5.1176 19.6444C4.55519 18.2225 3.74484 17.8441 3.74484 17.8441C2.62309 17.0805 3.82939 17.0962 3.82939 17.0962C5.07092 17.183 5.72464 18.3643 5.72464 18.3643C6.82735 20.2451 8.61696 19.7013 9.32248 19.3869C9.43345 18.5919 9.75386 18.0489 10.1074 17.7416C7.36131 17.4307 4.47452 16.3755 4.47452 11.661C4.47452 10.3179 4.95749 9.22014 5.74839 8.35849C5.62002 8.04859 5.19683 6.79718 5.86816 5.10242C5.86816 5.10242 6.90659 4.77194 9.26904 6.36381C10.2553 6.0912 11.3129 5.95449 12.3636 5.9496C13.4143 5.95449 14.4728 6.0912 15.4609 6.36381C17.8207 4.77194 18.8575 5.10242 18.8575 5.10242C19.5304 6.79718 19.1073 8.04859 18.9789 8.35849C19.7716 9.22014 20.2511 10.3179 20.2511 11.661C20.2511 16.3869 17.3588 17.4272 14.6057 17.7318C15.0492 18.1137 15.4443 18.8624 15.4443 20.0103C15.4443 21.6566 15.4302 22.9816 15.4302 23.3868C15.4302 23.7144 15.6525 24.0979 16.2792 23.9773C21.189 22.3485 24.7273 17.7382 24.7273 12.3038C24.7273 5.50828 19.1918 0 12.3636 0" fill="#181717"/>
</g>
</svg>
